<svg xmlns="http://www.w3.org/2000/svg" xmlns:xlink="http://www.w3.org/1999/xlink" width="57" zoomAndPan="magnify" viewBox="0 0 42 49.92" height="57" preserveAspectRatio="xMidYMid meet" version="1.0"><path fill="#ffffff" d="M 27.8125 21.492188 C 27.238281 20.914062 26.1875 20.914062 25.613281 21.492188 L 22.046875 25 C 21.890625 25.160156 21.734375 25.367188 21.679688 25.628906 L 21 27.621094 C 20.949219 27.832031 21 28.042969 21.105469 28.144531 C 21.210938 28.25 21.316406 28.304688 21.472656 28.304688 C 21.523438 28.304688 21.578125 28.304688 21.628906 28.25 L 23.621094 27.570312 C 23.832031 27.515625 24.039062 27.359375 24.25 27.203125 L 27.761719 23.691406 C 28.074219 23.378906 28.234375 23.011719 28.234375 22.589844 C 28.234375 22.171875 28.128906 21.753906 27.8125 21.492188 Z M 27.078125 22.957031 L 23.566406 26.46875 C 23.515625 26.523438 23.464844 26.574219 23.359375 26.574219 L 22.363281 26.886719 L 22.675781 25.894531 C 22.675781 25.839844 22.730469 25.734375 22.78125 25.683594 L 26.292969 22.171875 C 26.503906 21.960938 26.816406 21.960938 27.027344 22.171875 C 27.132812 22.277344 27.183594 22.382812 27.183594 22.539062 C 27.183594 22.695312 27.183594 22.851562 27.078125 22.957031 Z M 27.078125 22.957031 " fill-opacity="1" fill-rule="nonzero"/><path fill="#ffffff" d="M 19.953125 25.683594 L 16.808594 25.683594 C 15.917969 25.683594 15.234375 25 15.234375 24.109375 L 15.234375 16.773438 C 15.234375 15.882812 15.917969 15.203125 16.808594 15.203125 L 22.574219 15.203125 C 23.464844 15.203125 24.144531 15.882812 24.144531 16.773438 L 24.144531 20.441406 C 24.144531 20.757812 24.355469 20.964844 24.667969 20.964844 C 24.984375 20.964844 25.191406 20.757812 25.191406 20.441406 L 25.191406 16.773438 C 25.191406 15.304688 24.039062 14.152344 22.574219 14.152344 L 16.808594 14.152344 C 15.339844 14.152344 14.1875 15.304688 14.1875 16.773438 L 14.1875 24.109375 C 14.1875 25.578125 15.339844 26.730469 16.808594 26.730469 L 19.953125 26.730469 C 20.265625 26.730469 20.476562 26.523438 20.476562 26.207031 C 20.476562 25.894531 20.265625 25.683594 19.953125 25.683594 Z M 19.953125 25.683594 " fill-opacity="1" fill-rule="nonzero"/><path fill="#ffffff" d="M 22.046875 17.296875 L 17.332031 17.296875 C 17.015625 17.296875 16.808594 17.507812 16.808594 17.820312 C 16.808594 18.136719 17.015625 18.347656 17.332031 18.347656 L 22.046875 18.347656 C 22.363281 18.347656 22.574219 18.136719 22.574219 17.820312 C 22.574219 17.507812 22.363281 17.296875 22.046875 17.296875 Z M 22.046875 17.296875 " fill-opacity="1" fill-rule="nonzero"/><path fill="#ffffff" d="M 22.046875 19.917969 L 17.332031 19.917969 C 17.015625 19.917969 16.808594 20.128906 16.808594 20.441406 C 16.808594 20.757812 17.015625 20.964844 17.332031 20.964844 L 22.046875 20.964844 C 22.363281 20.964844 22.574219 20.757812 22.574219 20.441406 C 22.574219 20.128906 22.363281 19.917969 22.046875 19.917969 Z M 22.046875 19.917969 " fill-opacity="1" fill-rule="nonzero"/><path fill="#ffffff" d="M 20.476562 22.539062 L 17.332031 22.539062 C 17.015625 22.539062 16.808594 22.75 16.808594 23.0625 C 16.808594 23.378906 17.015625 23.585938 17.332031 23.585938 L 20.476562 23.585938 C 20.789062 23.585938 21 23.378906 21 23.0625 C 21 22.75 20.789062 22.539062 20.476562 22.539062 Z M 20.476562 22.539062 " fill-opacity="1" fill-rule="nonzero"/></svg>