<svg xmlns="http://www.w3.org/2000/svg" xmlns:xlink="http://www.w3.org/1999/xlink" width="57" zoomAndPan="magnify" viewBox="0 0 42 49.92" height="57" preserveAspectRatio="xMidYMid meet" version="1.0"><defs><clipPath id="91c17f080c"><path d="M 12.613281 13 L 29.628906 13 L 29.628906 29 L 12.613281 29 Z M 12.613281 13 " clip-rule="nonzero"/></clipPath></defs><g clip-path="url(#91c17f080c)"><path fill="#ffffff" d="M 25.890625 13.28125 L 16.109375 13.28125 C 15.644531 13.28125 15.199219 13.371094 14.773438 13.546875 C 14.34375 13.722656 13.964844 13.976562 13.640625 14.304688 C 13.3125 14.632812 13.058594 15.007812 12.882812 15.4375 C 12.703125 15.863281 12.613281 16.3125 12.613281 16.773438 L 12.613281 22.363281 C 12.613281 22.828125 12.703125 23.273438 12.882812 23.699219 C 13.058594 24.128906 13.3125 24.507812 13.640625 24.832031 C 13.964844 25.160156 14.34375 25.414062 14.773438 25.589844 C 15.199219 25.769531 15.644531 25.855469 16.109375 25.859375 L 20.300781 25.859375 L 20.300781 27.253906 L 17.507812 27.253906 C 17.3125 27.253906 17.148438 27.324219 17.011719 27.460938 C 16.875 27.597656 16.808594 27.761719 16.808594 27.953125 C 16.808594 28.148438 16.875 28.3125 17.011719 28.449219 C 17.148438 28.585938 17.3125 28.652344 17.507812 28.652344 L 24.492188 28.652344 C 24.6875 28.652344 24.851562 28.585938 24.988281 28.449219 C 25.125 28.3125 25.191406 28.148438 25.191406 27.953125 C 25.191406 27.761719 25.125 27.597656 24.988281 27.460938 C 24.851562 27.324219 24.6875 27.253906 24.492188 27.253906 L 21.699219 27.253906 L 21.699219 25.859375 L 25.890625 25.859375 C 26.355469 25.855469 26.800781 25.769531 27.226562 25.589844 C 27.65625 25.414062 28.035156 25.160156 28.359375 24.832031 C 28.6875 24.507812 28.941406 24.128906 29.117188 23.699219 C 29.296875 23.273438 29.386719 22.828125 29.386719 22.363281 L 29.386719 16.773438 C 29.386719 16.3125 29.296875 15.863281 29.117188 15.4375 C 28.941406 15.007812 28.6875 14.632812 28.359375 14.304688 C 28.035156 13.976562 27.65625 13.722656 27.226562 13.546875 C 26.800781 13.371094 26.355469 13.28125 25.890625 13.28125 Z M 16.109375 14.675781 L 25.890625 14.675781 C 26.167969 14.675781 26.4375 14.730469 26.695312 14.835938 C 26.949219 14.941406 27.175781 15.09375 27.375 15.292969 C 27.570312 15.488281 27.722656 15.714844 27.828125 15.972656 C 27.933594 16.226562 27.988281 16.496094 27.988281 16.773438 L 27.988281 21.664062 L 14.011719 21.664062 L 14.011719 16.773438 C 14.011719 16.496094 14.066406 16.226562 14.171875 15.972656 C 14.277344 15.714844 14.429688 15.488281 14.625 15.292969 C 14.824219 15.09375 15.050781 14.941406 15.304688 14.835938 C 15.5625 14.730469 15.832031 14.675781 16.109375 14.675781 Z M 25.890625 24.460938 L 16.109375 24.460938 C 15.664062 24.457031 15.265625 24.328125 14.902344 24.074219 C 14.542969 23.816406 14.289062 23.480469 14.140625 23.0625 L 27.859375 23.0625 C 27.710938 23.480469 27.457031 23.816406 27.097656 24.074219 C 26.734375 24.328125 26.335938 24.457031 25.890625 24.460938 Z M 25.890625 24.460938 " fill-opacity="1" fill-rule="nonzero"/></g></svg>