<svg fill="none" height="24" viewBox="0 0 24 24" width="24" xmlns="http://www.w3.org/2000/svg"><path clip-rule="evenodd" d="m7.1808 1h7.6384c.536-.000018.9984-.000034 1.3791.03158.4019.03337.8014.10709 1.1846.30618.548.28463.9947.73139 1.2793 1.27932.1991.38327.2729.78274.3062 1.18462.0316.38066.0316.84307.0316 1.37908v6.31922c0 .5523-.4477 1-1 1s-1-.4477-1-1v-6.28c0-.58627-.0008-.96483-.0247-1.25278-.0229-.27597-.0618-.37798-.0879-.42819-.0949-.18265-.2438-.33157-.4264-.42644-.0502-.02608-.1522-.06495-.4282-.08787-.288-.02391-.6665-.02472-1.2528-.02472h-7.56c-.58627 0-.96483.00081-1.25278.02472-.27597.02292-.37798.06179-.42819.08787-.18265.09487-.33157.24379-.42644.42644-.02608.05021-.06495.15222-.08787.42819-.02391.28795-.02472.66651-.02472 1.25278v11.56c0 .5863.00081.9648.02472 1.2528.02292.276.06179.378.08787.4282.09487.1826.24379.3315.42644.4264.05021.0261.15222.065.42819.0879.28795.0239.66651.0247 1.25278.0247h2.78c.5523 0 1 .4477 1 1s-.4477 1-1 1h-2.81917c-.53604 0-.99845 0-1.37913-.0316-.40188-.0334-.80136-.1071-1.18462-.3062-.54793-.2846-.99469-.7313-1.27932-1.2793-.19909-.3832-.27281-.7827-.30618-1.1846-.03161-.3807-.0316-.8431-.03158-1.3791v-11.6384c-.00002-.53602-.00003-.99843.03158-1.3791.03337-.40188.10709-.80135.30618-1.18462.28463-.54793.73139-.99469 1.27932-1.27932.38327-.19909.78274-.27281 1.18462-.30618.38067-.031614.84308-.031598 1.3791-.03158zm-.1808 5c0-.55228.44772-1 1-1h6c.5523 0 1 .44772 1 1 0 .55229-.4477 1-1 1h-6c-.55228 0-1-.44771-1-1zm0 4c0-.55228.44772-1 1-1h6c.5523 0 1 .44772 1 1 0 .5523-.4477 1-1 1h-6c-.55228 0-1-.4477-1-1zm0 4c0-.5523.44772-1 1-1h2c.5523 0 1 .4477 1 1s-.4477 1-1 1h-2c-.55228 0-1-.4477-1-1zm13.7071 1.2929c.3905.3905.3905 1.0237 0 1.4142l-3.6464 3.6465c-.5858.5857-1.5356.5857-2.1214 0l-1.6464-1.6465c-.3905-.3905-.3905-1.0237 0-1.4142s1.0237-.3905 1.4142 0l1.2929 1.2929 3.2929-3.2929c.3905-.3905 1.0237-.3905 1.4142 0z" fill="rgb(0,0,0)" fill-rule="evenodd"/></svg>