<svg xmlns="http://www.w3.org/2000/svg" xmlns:xlink="http://www.w3.org/1999/xlink" width="57" zoomAndPan="magnify" viewBox="0 0 42.75 42.75" height="57" preserveAspectRatio="xMidYMid meet" version="1.0"><defs><clipPath id="a361ca41e0"><path d="M 0 0 L 42.5 0 L 42.5 42.5 L 0 42.5 Z M 0 0 " clip-rule="nonzero"/></clipPath><clipPath id="0f60e2e28e"><path d="M 0 0 L 42.5 0 L 42.5 42.5 L 0 42.5 Z M 0 0 " clip-rule="nonzero"/></clipPath><clipPath id="e0ef39481a"><rect x="0" width="43" y="0" height="43"/></clipPath></defs><g clip-path="url(#a361ca41e0)"><path fill="#ffffff" d="M 0 0 L 42.5 0 L 42.5 42.5 L 0 42.5 Z M 0 0 " fill-opacity="1" fill-rule="nonzero"/><g transform="matrix(1, 0, 0, 1, 0, 0.000000000000006073)"><g clip-path="url(#e0ef39481a)"><g clip-path="url(#0f60e2e28e)"><path fill="#d9d9d9" d="M 0 0 L 42.730469 0 L 42.730469 42.730469 L 0 42.730469 Z M 0 0 " fill-opacity="1" fill-rule="nonzero"/></g><path fill="#ffffff" d="M 28.152344 21.78125 C 27.570312 21.195312 26.507812 21.195312 25.921875 21.78125 L 22.3125 25.339844 C 22.152344 25.496094 21.992188 25.710938 21.9375 25.976562 L 21.25 27.996094 C 21.195312 28.207031 21.25 28.417969 21.355469 28.527344 C 21.460938 28.632812 21.566406 28.683594 21.726562 28.683594 C 21.78125 28.683594 21.832031 28.683594 21.886719 28.632812 L 23.90625 27.941406 C 24.117188 27.886719 24.328125 27.730469 24.542969 27.570312 L 28.101562 24.011719 C 28.417969 23.691406 28.578125 23.320312 28.578125 22.894531 C 28.578125 22.46875 28.472656 22.046875 28.152344 21.78125 Z M 27.410156 23.265625 L 23.851562 26.824219 C 23.796875 26.878906 23.746094 26.933594 23.640625 26.933594 L 22.628906 27.25 L 22.949219 26.242188 C 22.949219 26.1875 23 26.082031 23.054688 26.027344 L 26.613281 22.46875 C 26.824219 22.257812 27.144531 22.257812 27.355469 22.46875 C 27.464844 22.578125 27.515625 22.683594 27.515625 22.84375 C 27.515625 23 27.515625 23.160156 27.410156 23.265625 Z M 27.410156 23.265625 " fill-opacity="1" fill-rule="nonzero"/><path fill="#ffffff" d="M 20.1875 26.027344 L 17 26.027344 C 16.097656 26.027344 15.40625 25.339844 15.40625 24.4375 L 15.40625 17 C 15.40625 16.097656 16.097656 15.40625 17 15.40625 L 22.84375 15.40625 C 23.746094 15.40625 24.4375 16.097656 24.4375 17 L 24.4375 20.71875 C 24.4375 21.035156 24.648438 21.25 24.964844 21.25 C 25.285156 21.25 25.496094 21.035156 25.496094 20.71875 L 25.496094 17 C 25.496094 15.511719 24.328125 14.34375 22.84375 14.34375 L 17 14.34375 C 15.511719 14.34375 14.34375 15.511719 14.34375 17 L 14.34375 24.4375 C 14.34375 25.921875 15.511719 27.089844 17 27.089844 L 20.1875 27.089844 C 20.503906 27.089844 20.71875 26.878906 20.71875 26.558594 C 20.71875 26.242188 20.503906 26.027344 20.1875 26.027344 Z M 20.1875 26.027344 " fill-opacity="1" fill-rule="nonzero"/><path fill="#ffffff" d="M 22.3125 17.53125 L 17.53125 17.53125 C 17.210938 17.53125 17 17.742188 17 18.0625 C 17 18.378906 17.210938 18.59375 17.53125 18.59375 L 22.3125 18.59375 C 22.628906 18.59375 22.84375 18.378906 22.84375 18.0625 C 22.84375 17.742188 22.628906 17.53125 22.3125 17.53125 Z M 22.3125 17.53125 " fill-opacity="1" fill-rule="nonzero"/><path fill="#ffffff" d="M 22.3125 20.1875 L 17.53125 20.1875 C 17.210938 20.1875 17 20.398438 17 20.71875 C 17 21.035156 17.210938 21.25 17.53125 21.25 L 22.3125 21.25 C 22.628906 21.25 22.84375 21.035156 22.84375 20.71875 C 22.84375 20.398438 22.628906 20.1875 22.3125 20.1875 Z M 22.3125 20.1875 " fill-opacity="1" fill-rule="nonzero"/><path fill="#ffffff" d="M 20.71875 22.84375 L 17.53125 22.84375 C 17.210938 22.84375 17 23.054688 17 23.375 C 17 23.691406 17.210938 23.90625 17.53125 23.90625 L 20.71875 23.90625 C 21.035156 23.90625 21.25 23.691406 21.25 23.375 C 21.25 23.054688 21.035156 22.84375 20.71875 22.84375 Z M 20.71875 22.84375 " fill-opacity="1" fill-rule="nonzero"/></g></g></g></svg>