<?xml version="1.0" encoding="UTF-8"?>
<!DOCTYPE svg PUBLIC "-//W3C//DTD SVG 1.1//EN" "http://www.w3.org/Graphics/SVG/1.1/DTD/svg11.dtd">
<!-- Creator: CorelDRAW 2020 (64-Bit Evaluation Version) -->
<svg xmlns="http://www.w3.org/2000/svg" xml:space="preserve" width="7.5184mm" height="8.9824mm" version="1.1" style="shape-rendering:geometricPrecision; text-rendering:geometricPrecision; image-rendering:optimizeQuality; fill-rule:evenodd; clip-rule:evenodd"
viewBox="0 0 111.53 133.25"
 xmlns:xlink="http://www.w3.org/1999/xlink"
 xmlns:xodm="http://www.corel.com/coreldraw/odm/2003">
 <defs>
  <style type="text/css">
   <![CDATA[
    .fil1 {fill:#18AEAB}
    .fil2 {fill:#47357A}
    .fil0 {fill:#052340;fill-rule:nonzero}
   ]]>
  </style>
 </defs>
 <g id="Layer_x0020_1">
  <metadata id="CorelCorpID_0Corel-Layer"/>
  <g id="_2015099535632">
   <path class="fil0" d="M36.83 2.35l-22.54 1.83 6.63 13.48 6.39 -9.31 0.13 0.16 9.38 -6.16zm-22.97 1.33l23.99 -1.99c14.73,8.44 12.82,7.53 26.9,19.47l0.17 0.32 2.1 29.11 0.02 0.18 0.04 0.36 2 17.65 -6.8 22.31 0.03 0.57 -0.27 -0.23 -12.09 13.34 -0.03 0.53 -0.3 -0.32 -12.46 5.56 2.4 -16.51 -0.08 -0.09 0.1 -0.11 0.66 -26.14 -0.19 -0.01 0.1 -0.17 -17.07 -12.37 -0.01 0 -0.2 -0.16 -0 -0.01 -19.45 -15.6 2.15 -21.84c-0.1,-0.12 7.43,-12.6 8.16,-13.83l0.14 -0.01zm-0 0.83l-7.58 12.7 14.05 1.31 0.25 -0.36 -6.72 -13.66zm-7.37 13.26l10.4 11.72 3.23 -10.44 -13.63 -1.27zm9.99 12.06l-10.43 -11.75 -2.03 20.62 12.47 -8.87zm0.28 0.46l-12.63 8.98 18.52 14.86 -5.89 -23.83zm21.11 -27.97l-9.5 6.24 21.06 0.39 -11.56 -6.62zm25.98 18.77l-13.78 -11.68 -1.05 10.62 14.83 1.07zm2.52 27.94l-1.92 -26.67 -4.84 9.16 6.76 17.51zm0.26 2.84l-5.42 16.83 -0.04 0.32 1.04 20.5 6.34 -20.78 -1.91 -16.87zm-5.83 16.36l5.62 -17.45 -16.82 4.51 11.2 12.94zm0.92 22.22l-1.09 -21.46 -19.57 -1.25 10.22 13.89 10.44 8.82zm-0.09 0.63l-10.31 -8.72 -1.32 21.55 11.63 -12.84zm-12.17 12.93l1.32 -21.47 -10.57 11.39 9.26 10.08zm-0.22 0.55l-9.22 -10.04 -2.2 15.12 11.42 -5.09zm-9.12 -11.33l10.62 -11.44 -9.98 -13.57 -0.63 25.01zm-19.51 -73.95l-3.14 10.17 9.01 -4.94 -5.87 -5.23zm19.38 47.44l-5.74 -16.88 -0.23 -0.2 -10.4 5.22 16.37 11.86zm-5.38 -17.5l0.27 0.79 9.21 -5.32 -2.92 -6.82c-2.18,3.78 -4.34,7.6 -6.55,11.35zm0.39 1.16l5.58 16.43 7.69 -12.32 -3.98 -9.3 -9.22 5.32 -0.07 -0.13zm14.21 4.45l16.83 -4.51 -13.02 -9.94 -3.86 14.4 0.04 0.05zm-0.37 -0.89l3.61 -13.47 -3.77 2.18 0.17 11.29zm4.18 -14.41l0.16 0.29 12.87 9.83 -6.94 -17.96 -10.49 -5.08 4.4 12.92zm-4.88 3.43l-3.38 1.95 3.53 8.25 -0.15 -10.2zm-3.59 1.46l3.59 -2.07 -0.23 -15.85 -12.28 5.44 5.51 4.91 0.29 0.26 0.22 0.52 2.91 6.79zm4.11 -2.38l3.89 -2.24 -4.09 -12.02 0.21 14.27zm-12.09 -22.93l12.13 -9.67 -20.77 -0.38 8.22 9.91 0.17 0.12 0.26 0.02zm12.96 -9.65l-12.18 9.7 11.14 0.8 1.04 -10.51zm-12.86 10.25l-0.41 0.33 -0.65 11.32 11.97 -5.3 -10.9 -6.34zm12.3 0.83l-0.53 5.39 10.76 5.21 5.02 -9.5 -15.25 -1.1zm-1.04 5.11l0.51 -5.15 -10.67 -0.77 10.17 5.92zm-14.06 23.45l-16.42 -18.24 5.82 23.56 10.59 -5.32zm-15.84 -18.4l16.04 17.82 0.71 -12.24c-1.6,-0.31 -4.81,-0.7 -6.16,-1.25l-0.02 0.01 0.01 -0.01 -10.57 -4.32zm-0.41 -0.74l11.21 4.58 2.62 -5.59 -4.56 -4.07 -9.27 5.08zm11.78 4.72l5.41 1.06 0.2 -3.53 -0.01 -0.01 -5.6 2.48zm5.94 1.16l4.94 0.97 -4.75 -4.23 -0.19 3.27zm5.43 1.61l-5.46 -1.07 -0.67 11.69 6.13 -10.62zm-6.13 -5.67l-2.76 -2.46 -2.18 4.65 4.94 -2.19zm-13.81 -13.03l6.14 5.48 8.82 -4.84 -8.43 -10.16 -6.54 9.52zm6.57 5.86l4.31 3.84 3.91 -8.35 -8.22 4.51zm4.72 4.21l2.95 2.63 0.59 -10.18 -3.54 7.54zm16.55 26.2l-0.06 -0.07 -7.64 12.23 19.3 1.23 -11.6 -13.4z"/>
   <path class="fil1" d="M57.85 6.76c9.73,7.92 19.38,14.31 10.23,19.9l1.89 8.73c6.08,1.96 10.43,5.45 11.81,11.84 1.84,8.52 -1.4,11.47 -6.61,16.57 16.52,0.79 13.29,19.56 1.69,19.98 -5.19,0.19 -6.66,-2.32 -9.81,-4.86l-1.88 5.5c2.39,3.19 4.88,5.4 2.98,9.66 -1.43,3.21 -5.44,4.43 -9.5,2.79 -5.17,6.05 1.11,12.8 -7.42,14.69 -4.52,1 -2.67,-0.93 -5.72,2.11 -2.91,2.89 -9.65,13.93 -10.59,19.58 2.21,-0.71 9.27,-6.24 19.12,-10.27 23.25,-9.52 38.65,-3.87 48.01,-10.25 8.39,-5.71 5.5,-10.64 4.89,-17.78 -0.39,-4.57 0.39,-4.63 4.58,-5.94 -0.24,-3.39 -0.84,-3.9 -3.21,-5.35 1.83,-4.7 3.69,-8.09 -2.15,-10.79 -1.92,-0.89 -2.78,-0.61 -1.56,-2.79 2.56,-4.61 11.03,-9.99 -2.43,-14.88 -12.77,-4.63 -12.03,-6.8 -13.8,-16.73 -2.66,-14.86 -18.83,-28.98 -30.53,-31.72z"/>
   <g>
    <path class="fil2" d="M37.7 -0c1.14,0 2.07,0.93 2.07,2.07 0,1.15 -0.93,2.07 -2.07,2.07 -1.14,0 -2.07,-0.93 -2.07,-2.07 0,-1.14 0.93,-2.07 2.07,-2.07z"/>
    <path class="fil2" d="M48.98 6.11c1.62,0 2.93,1.31 2.93,2.93 0,1.62 -1.31,2.93 -2.93,2.93 -1.62,0 -2.93,-1.31 -2.93,-2.93 0,-1.62 1.31,-2.93 2.93,-2.93z"/>
    <path class="fil2" d="M27.46 5.68c1.62,0 2.93,1.31 2.93,2.93 0,1.62 -1.31,2.93 -2.93,2.93 -1.62,0 -2.93,-1.31 -2.93,-2.93 0,-1.62 1.31,-2.93 2.93,-2.93z"/>
    <path class="fil2" d="M14.22 1.18c1.62,0 2.93,1.31 2.93,2.93 0,1.62 -1.31,2.93 -2.93,2.93 -1.62,0 -2.93,-1.31 -2.93,-2.93 0,-1.62 1.31,-2.93 2.93,-2.93z"/>
    <path class="fil2" d="M5.83 15.55c1.21,0 2.19,0.98 2.19,2.19 0,1.21 -0.98,2.19 -2.19,2.19 -1.21,0 -2.19,-0.98 -2.19,-2.19 0,-1.21 0.98,-2.19 2.19,-2.19z"/>
    <path class="fil2" d="M20.5 16.77c1.08,0 1.96,0.88 1.96,1.96 0,1.08 -0.88,1.96 -1.96,1.96 -1.08,0 -1.96,-0.88 -1.96,-1.96 0,-1.08 0.88,-1.96 1.96,-1.96z"/>
    <path class="fil2" d="M35.99 15.11c2.66,0 4.81,2.15 4.81,4.81 0,2.66 -2.15,4.81 -4.81,4.81 -2.66,0 -4.81,-2.15 -4.81,-4.81 0,-2.66 2.15,-4.81 4.81,-4.81z"/>
    <path class="fil2" d="M64.61 19.06c1.62,0 2.93,1.31 2.93,2.93 0,1.62 -1.31,2.93 -2.93,2.93 -1.62,0 -2.93,-1.31 -2.93,-2.93 0,-1.62 1.31,-2.93 2.93,-2.93z"/>
    <path class="fil2" d="M48.32 23.24c1.62,0 2.93,1.31 2.93,2.93 0,1.62 -1.31,2.93 -2.93,2.93 -1.62,0 -2.93,-1.31 -2.93,-2.93 0,-1.62 1.31,-2.93 2.93,-2.93z"/>
    <path class="fil2" d="M59.43 28.55c1.56,0 2.82,1.26 2.82,2.82 0,1.56 -1.26,2.82 -2.82,2.82 -1.56,0 -2.82,-1.26 -2.82,-2.82 0,-1.56 1.26,-2.82 2.82,-2.82z"/>
    <path class="fil2" d="M28.5 31.64c1.62,0 2.93,1.31 2.93,2.93 0,1.62 -1.31,2.93 -2.93,2.93 -1.62,0 -2.93,-1.31 -2.93,-2.93 0,-1.62 1.31,-2.93 2.93,-2.93z"/>
    <path class="fil2" d="M17.03 27.96c1.62,0 2.93,1.31 2.93,2.93 0,1.62 -1.31,2.93 -2.93,2.93 -1.62,0 -2.93,-1.31 -2.93,-2.93 0,-1.62 1.31,-2.93 2.93,-2.93z"/>
    <path class="fil2" d="M41 35.62c1.08,0 1.96,0.88 1.96,1.96 0,1.08 -0.88,1.96 -1.96,1.96 -1.08,0 -1.96,-0.88 -1.96,-1.96 0,-1.08 0.88,-1.96 1.96,-1.96z"/>
    <path class="fil2" d="M34.56 45.93c1.84,0 3.33,1.49 3.33,3.33 0,1.84 -1.49,3.33 -3.33,3.33 -1.84,0 -3.33,-1.49 -3.33,-3.33 0,-1.84 1.49,-3.33 3.33,-3.33z"/>
    <path class="fil2" d="M49.03 50.01c2.66,0 4.81,2.15 4.81,4.81 0,2.66 -2.15,4.81 -4.81,4.81 -2.66,0 -4.81,-2.15 -4.81,-4.81 0,-2.66 2.15,-4.81 4.81,-4.81z"/>
    <path class="fil2" d="M65.3 43.9c3.34,0 6.04,2.7 6.04,6.04 0,3.34 -2.7,6.04 -6.04,6.04 -3.34,0 -6.04,-2.71 -6.04,-6.04 0,-3.34 2.7,-6.04 6.04,-6.04z"/>
    <path class="fil2" d="M52.92 36.73c1.73,0 3.13,1.4 3.13,3.13 0,1.73 -1.4,3.13 -3.13,3.13 -1.73,0 -3.13,-1.4 -3.13,-3.13 0,-1.73 1.4,-3.13 3.13,-3.13z"/>
    <path class="fil2" d="M40.11 63.2c2.41,0 4.36,1.95 4.36,4.36 0,2.41 -1.95,4.36 -4.36,4.36 -2.41,0 -4.36,-1.95 -4.36,-4.36 0,-2.41 1.95,-4.36 4.36,-4.36z"/>
    <path class="fil2" d="M60.87 64.63c2.27,0 4.1,1.84 4.1,4.1 0,2.27 -1.84,4.1 -4.1,4.1 -2.26,0 -4.1,-1.84 -4.1,-4.1 0,-2.27 1.84,-4.1 4.1,-4.1z"/>
    <path class="fil2" d="M76.17 68.15c3.1,0 5.61,2.51 5.61,5.61 0,3.1 -2.51,5.61 -5.61,5.61 -3.1,0 -5.61,-2.51 -5.61,-5.61 0,-3.1 2.51,-5.61 5.61,-5.61z"/>
    <path class="fil2" d="M51.81 77.77c2.64,0 4.77,2.14 4.77,4.77 0,2.64 -2.14,4.78 -4.77,4.78 -2.64,0 -4.77,-2.14 -4.77,-4.78 0,-2.64 2.14,-4.77 4.77,-4.77z"/>
    <path class="fil2" d="M61.65 87.06c1.89,0 3.41,1.53 3.41,3.41 0,1.89 -1.53,3.41 -3.41,3.41 -1.89,0 -3.41,-1.53 -3.41,-3.41 0,-1.89 1.53,-3.41 3.41,-3.41z"/>
    <path class="fil2" d="M49.76 100.86c1.89,0 3.41,1.53 3.41,3.41 0,1.89 -1.53,3.41 -3.41,3.41 -1.89,0 -3.41,-1.53 -3.41,-3.41 0,-1.89 1.53,-3.41 3.41,-3.41z"/>
    <path class="fil2" d="M37.36 106.73c1.74,0 3.14,1.41 3.14,3.14 0,1.74 -1.41,3.15 -3.14,3.15 -1.74,0 -3.14,-1.41 -3.14,-3.15 0,-1.74 1.41,-3.14 3.14,-3.14z"/>
    <path class="fil2" d="M40.48 89.24c2.79,0 5.06,2.26 5.06,5.06 0,2.79 -2.26,5.06 -5.06,5.06 -2.79,0 -5.06,-2.26 -5.06,-5.06 0,-2.79 2.26,-5.06 5.06,-5.06z"/>
    <path class="fil2" d="M4.04 35.17c2.23,0 4.04,1.81 4.04,4.04 0,2.23 -1.81,4.04 -4.04,4.04 -2.23,0 -4.04,-1.81 -4.04,-4.04 0,-2.23 1.81,-4.04 4.04,-4.04z"/>
    <path class="fil2" d="M23.09 52.86c1.08,0 1.96,0.88 1.96,1.96 0,1.08 -0.88,1.96 -1.96,1.96 -1.08,0 -1.96,-0.88 -1.96,-1.96 0,-1.08 0.88,-1.96 1.96,-1.96z"/>
    <path class="fil2" d="M68.87 67.32c0.81,0 1.47,0.66 1.47,1.47 0,0.81 -0.66,1.47 -1.47,1.47 -0.81,0 -1.47,-0.66 -1.47,-1.47 0,-0.81 0.66,-1.47 1.47,-1.47z"/>
   </g>
  </g>
 </g>
</svg>
